<svg width="11" height="14" viewBox="0 0 11 14" fill="none" xmlns="http://www.w3.org/2000/svg">
<path d="M1.224 13.3248C1.24 13.7024 1.5504 14 1.928 14H8.5056C8.8832 14 9.1952 13.7024 9.2096 13.3248L9.68 3.408H0.7536L1.224 13.3248ZM6.704 5.872C6.704 5.7136 6.832 5.5856 6.9904 5.5856H7.448C7.6064 5.5856 7.7344 5.7152 7.7344 5.872V11.5376C7.7344 11.696 7.6048 11.824 7.448 11.824H6.9904C6.832 11.824 6.704 11.696 6.704 11.5376V5.872ZM4.7024 5.872C4.7024 5.7136 4.8304 5.5856 4.9888 5.5856H5.4464C5.6048 5.5856 5.7328 5.7152 5.7328 5.872V11.5376C5.7328 11.696 5.6048 11.824 5.4464 11.824H4.9888C4.8304 11.824 4.7024 11.696 4.7024 11.5376V5.872ZM2.6992 5.872C2.6992 5.7136 2.8272 5.5856 2.984 5.5856H3.4416C3.6 5.5856 3.728 5.7152 3.728 5.872V11.5376C3.728 11.696 3.5984 11.824 3.4416 11.824H2.984C2.8256 11.824 2.6992 11.696 2.6992 11.5376V5.872ZM9.992 0.7216H6.9584V0.1472C6.9584 0.0656 6.8928 0 6.8112 0H3.624C3.5424 0 3.4768 0.0656 3.4768 0.1472V0.7216H0.4416C0.1984 0.7216 0 0.9184 0 1.1632V2.552H10.4336V1.1632C10.4336 0.92 10.2368 0.7216 9.992 0.7216Z" fill="#FF6760"/>
</svg>
